<?xml version="1.0" standalone="no"?>
<!DOCTYPE svg PUBLIC "-//W3C//DTD SVG 20010904//EN"
 "http://www.w3.org/TR/2001/REC-SVG-20010904/DTD/svg10.dtd">
<svg version="1.0" xmlns="http://www.w3.org/2000/svg"
 width="300.000000pt" height="300.000000pt" viewBox="0 0 300.000000 300.000000"
 preserveAspectRatio="xMidYMid meet">
<metadata>
Created by potrace 1.11, written by Peter Selinger 2001-2013
</metadata>
<g transform="translate(0.000000,300.000000) scale(0.100000,-0.100000)"
fill="#000000" stroke="none">
<path d="M2373 2500 c-11 -5 -36 -30 -53 -57 -64 -94 -174 -194 -265 -241 -22
-11 -71 -30 -110 -42 -63 -20 -99 -24 -355 -30 -157 -5 -301 -12 -320 -17
-269 -73 -485 -285 -550 -539 -22 -86 -35 -243 -22 -262 7 -11 25 -3 82 34
262 169 630 274 966 274 85 0 103 -3 117 -18 22 -24 21 -44 0 -71 -16 -19 -34
-22 -173 -31 -85 -5 -193 -16 -239 -25 -341 -60 -622 -199 -849 -419 -164
-159 -282 -338 -282 -430 0 -43 4 -53 40 -88 38 -39 42 -40 90 -36 58 6 91 31
122 93 50 99 159 238 231 296 l40 33 41 -46 c145 -161 340 -249 556 -249 546
-1 975 376 1105 971 22 104 31 369 16 479 -29 195 -97 406 -138 422 -14 5 -25
9 -26 8 -1 0 -12 -4 -24 -9z"/>
</g>
</svg>
