<?xml version="1.0" encoding="iso-8859-1"?>
<!-- Generator: Adobe Illustrator 19.0.0, SVG Export Plug-In . SVG Version: 6.00 Build 0)  -->
<svg version="1.1" id="Capa_1" xmlns="http://www.w3.org/2000/svg" xmlns:xlink="http://www.w3.org/1999/xlink" x="0px" y="0px"
	 viewBox="0 0 512 512" style="enable-background:new 0 0 512 512;" xml:space="preserve">
<g>
	<path style="fill:#F0C419;" d="M273.479,176.552c-2.967-21.301-8.848-42.094-17.479-61.793
		c-8.63,19.699-14.512,40.492-17.479,61.793H273.479z"/>
	<path style="fill:#67B9CC;" d="M289.192,379.851c-4.569,11.112-6.851,23.032-6.709,35.046c0,35.31,26.483,97.103,26.483,97.103
		c-16.834-6.65-34.885-9.659-52.966-8.828c-18.081-0.831-36.132,2.177-52.966,8.828c0,0,26.483-61.793,26.483-97.103
		c0.142-12.014-2.14-23.933-6.709-35.046C77.065,385.766,0,300.138,0,300.138c52.966-8.828,132.414-61.793,158.897-61.793
		c17.981,0.453,35.81,3.424,52.966,8.828c0,0,17.655-8.828,17.655-17.655S211.862,167.724,256,167.724s26.483,52.966,26.483,61.793
		s17.655,17.655,17.655,17.655c17.156-5.403,34.985-8.375,52.966-8.828c26.483,0,105.931,52.965,158.897,61.793
		C512,300.138,434.935,385.766,289.192,379.851z"/>
	<path style="fill:#BDC3C7;" d="M291.31,105.931h203.034c9.739-0.029,17.626-7.917,17.655-17.655
		c-0.072-9.721-7.935-17.583-17.655-17.655h-52.966c-9.721-0.072-17.583-7.935-17.655-17.655
		c0.029-9.739,7.917-17.626,17.655-17.655h35.31c9.739-0.029,17.626-7.917,17.655-17.655c0.025-4.684-1.855-9.177-5.208-12.447
		c-3.27-3.353-7.763-5.233-12.447-5.208H105.931c-9.739,0.029-17.626,7.917-17.655,17.655c-0.025,4.684,1.855,9.177,5.208,12.447
		c3.27,3.353,7.763,5.233,12.447,5.208h220.69c9.739,0.029,17.626,7.917,17.655,17.655c-0.072,9.721-7.934,17.583-17.655,17.655
		H185.379c-9.739,0.029-17.626,7.917-17.655,17.655c0.072,9.721,7.935,17.583,17.655,17.655H291.31z"/>
	<g>
		<path style="fill:#41767F;" d="M88.276,325.262c-4.27,0.009-7.933-3.04-8.701-7.24s1.58-8.348,5.576-9.85
			c19.518-7.371,40.713-17.602,59.401-26.615c5.023-2.428,9.931-4.793,14.671-7.062c4.4-2.104,9.672-0.242,11.776,4.158
			c2.104,4.4,0.242,9.672-4.158,11.776c-4.705,2.233-9.578,4.59-14.566,6.991c-19.032,9.181-40.607,19.588-60.831,27.242
			C90.435,325.054,89.36,325.258,88.276,325.262z"/>
		<path style="fill:#41767F;" d="M154.792,342.917c-4.128,0.034-7.729-2.798-8.668-6.819c-0.939-4.02,1.033-8.155,4.749-9.954
			c14.777-7.309,30.897-17.487,45.118-26.483c3.84-2.419,7.592-4.793,11.211-7.062c2.681-1.665,6.046-1.774,8.829-0.285
			c2.782,1.489,4.559,4.349,4.661,7.503c0.102,3.154-1.487,6.123-4.168,7.788c-3.584,2.225-7.3,4.573-11.096,6.974
			c-15.107,9.897-30.702,19.031-46.724,27.366C157.492,342.569,156.153,342.901,154.792,342.917z"/>
		<path style="fill:#41767F;" d="M423.724,326.621c-1.067-0.002-2.125-0.194-3.125-0.565c-20.171-7.627-41.657-17.999-60.619-27.145
			c-5.058-2.445-10.002-4.829-14.777-7.062c-4.405-2.092-6.28-7.358-4.189-11.763c2.092-4.405,7.358-6.28,11.763-4.189
			c4.802,2.278,9.781,4.679,14.874,7.142c18.635,8.987,39.724,19.174,59.198,26.483c4.009,1.495,6.37,5.649,5.6,9.859
			C431.68,323.59,428.003,326.641,423.724,326.621z"/>
		<path style="fill:#41767F;" d="M357.208,344.276c-1.354,0.012-2.693-0.29-3.911-0.883c-15.537-7.689-32.018-18.097-46.557-27.277
			c-3.858-2.445-7.627-4.82-11.264-7.062c-2.681-1.665-4.269-4.634-4.168-7.788c0.102-3.154,1.879-6.014,4.661-7.503
			c2.782-1.489,6.148-1.38,8.829,0.285c3.672,2.278,7.477,4.687,11.37,7.142c14.177,8.96,30.243,19.103,44.959,26.395
			c3.716,1.799,5.688,5.934,4.749,9.954c-0.939,4.02-4.54,6.852-8.668,6.819V344.276z"/>
	</g>
</g>
<g>
</g>
<g>
</g>
<g>
</g>
<g>
</g>
<g>
</g>
<g>
</g>
<g>
</g>
<g>
</g>
<g>
</g>
<g>
</g>
<g>
</g>
<g>
</g>
<g>
</g>
<g>
</g>
<g>
</g>
</svg>
