<?xml version="1.0" encoding="iso-8859-1"?>
<!-- Generator: Adobe Illustrator 19.0.0, SVG Export Plug-In . SVG Version: 6.00 Build 0)  -->
<svg version="1.1" id="Capa_1" xmlns="http://www.w3.org/2000/svg" xmlns:xlink="http://www.w3.org/1999/xlink" x="0px" y="0px"
	 viewBox="0 0 511.969 511.969" style="enable-background:new 0 0 511.969 511.969;" xml:space="preserve">
<g>
	<g>
		<path style="fill:#CBB292;" d="M238.435,254.418c-1.933-6.85-11.546-37.164-34.895-53.327
			c-17.187-11.873-15.757-46.883-12.65-69.941c0.662-3.838-1.27-7.656-4.753-9.397c-3.484-1.741-7.697-0.993-10.368,1.84
			c-14.783,15.896-20.867,38.012-16.296,59.233c0,0-8.828-18.255-61.687-27.366c-36.087-6.232-31.126-50.75-24.338-78.38
			c1.135-3.675-0.241-7.662-3.401-9.856c-3.16-2.193-7.376-2.088-10.423,0.26c-13.943,9.721-22.623,25.329-23.526,42.302
			c0,0-14.23-36.855,8.448-97.315c1.54-3.628,0.508-7.836-2.536-10.339c-3.044-2.503-7.372-2.704-10.634-0.492
			C14.727,14.308-4.315,41.806,0.867,100.659c0,0,0,54.784,61.687,82.167c61.687,27.383,88.108,9.137,149.795,73.048
			L238.435,254.418z"/>
		<path style="fill:#CBB292;" d="M299.619,255.874c61.687-63.912,88.126-45.656,149.813-73.048
			c61.687-27.392,61.669-82.167,61.669-82.167c5.182-58.854-13.859-86.351-30.508-99.019c-3.265-2.22-7.603-2.021-10.651,0.489
			s-4.074,6.73-2.52,10.36c22.678,60.46,8.448,97.315,8.448,97.315c-0.903-16.973-9.583-32.581-23.526-42.302
			c-3.044-2.341-7.253-2.446-10.41-0.259s-4.537,6.164-3.414,9.837c6.788,27.63,11.75,72.148-24.338,78.38
			c-52.877,9.128-61.687,27.366-61.687,27.366c4.571-21.221-1.513-43.337-16.296-59.233c-2.672-2.833-6.885-3.581-10.368-1.84
			c-3.484,1.741-5.415,5.559-4.753,9.397c3.107,23.058,4.537,58.068-12.65,69.941c-23.349,16.163-32.962,46.477-34.895,53.327
			L299.619,255.874z"/>
	</g>
	<path style="fill:#805333;" d="M325.387,415.115c14.528,14.454,20.771,35.268,16.596,55.331
		c-3.893,18.008-21.698,28.363-40.104,34.304c-29.867,9.444-61.913,9.49-91.807,0.132c-18.759-5.914-36.988-16.287-40.907-34.428
		c-4.175-20.063,2.068-40.878,16.596-55.331L325.387,415.115z"/>
	<g>
		<path style="fill:#CB8252;" d="M255.984,247.047c-0.093-0.011-0.184-0.041-0.265-0.088"/>
		<path style="fill:#CB8252;" d="M177.86,300.101c-1.412,0.088-2.825,0.265-4.149,0.265"/>
		<path style="fill:#CB8252;" d="M185.364,269.028l-1.059-1.059"/>
		<path style="fill:#CB8252;" d="M255.631,246.959c-0.173,0.049-0.35,0.078-0.53,0.088"/>
		<path style="fill:#CB8252;" d="M422.826,230.274c0,0,0,75.123-85.451,70.091c2.109,11.7,1.135,23.748-2.825,34.957
			c-8.828,26.483,8.828,61.793-8.828,79.448c-17.479,17.479-43.52,34.957-69.738,35.31h-0.883
			c-26.218-0.353-52.259-17.832-69.738-35.31c-17.655-17.655,0-52.966-8.828-79.448c-3.96-11.21-4.934-23.257-2.825-34.957
			c-85.451,5.032-85.451-70.091-85.451-70.091c47.581-7.062,88.982,30.808,96.044,37.694l1.059-3.266
			c16.772-25.159,65.412-18.45,70.268-17.743h0.088c6.091-0.883,53.495-7.062,70.003,17.743l1.059,3.266
			C333.844,261.083,375.245,223.212,422.826,230.274z"/>
		<path style="fill:#CB8252;" d="M337.375,300.366c-1.324,0-2.737-0.177-4.149-0.265"/>
		<path style="fill:#CB8252;" d="M326.782,267.968l-1.059,1.059"/>
	</g>
	<path style="fill:#2C2F38;" d="M255.102,379.461h11.123c4.074,0,7.981,1.618,10.861,4.499c2.881,2.881,4.499,6.787,4.499,10.861
		v0.053c0.001,6.613-4.231,12.484-10.505,14.574l-15.978,5.323h0.883l-15.978-5.297c-6.286-2.094-10.521-7.984-10.505-14.61v-0.053
		c0.005-8.48,6.88-15.351,15.36-15.351h11.123"/>
	<g>
		<path style="fill:#ECF0F1;" d="M229.502,326.495h-8.828c-4.875,0-8.828,3.952-8.828,8.828s3.952,8.828,8.828,8.828h8.828
			c4.875,0,8.828-3.952,8.828-8.828S234.377,326.495,229.502,326.495z"/>
		<path style="fill:#ECF0F1;" d="M291.295,326.495h-8.828c-4.875,0-8.828,3.952-8.828,8.828s3.952,8.828,8.828,8.828h8.828
			c4.875,0,8.828-3.952,8.828-8.828S296.17,326.495,291.295,326.495z"/>
	</g>
</g>
<g>
</g>
<g>
</g>
<g>
</g>
<g>
</g>
<g>
</g>
<g>
</g>
<g>
</g>
<g>
</g>
<g>
</g>
<g>
</g>
<g>
</g>
<g>
</g>
<g>
</g>
<g>
</g>
<g>
</g>
</svg>
