<?xml version="1.0" encoding="iso-8859-1"?>
<!-- Generator: Adobe Illustrator 19.0.0, SVG Export Plug-In . SVG Version: 6.00 Build 0)  -->
<svg version="1.1" id="Capa_1" xmlns="http://www.w3.org/2000/svg" xmlns:xlink="http://www.w3.org/1999/xlink" x="0px" y="0px"
	 viewBox="0 0 512.394 512.394" style="enable-background:new 0 0 512.394 512.394;" xml:space="preserve">
<g transform="translate(-1)">
	<path style="fill:#67B9CC;" d="M376.979,217.797h-33.28c-9.216,35.584-26.453,64.341-47.957,80.213
		c-3.06,2.373-4.115,6.523-2.56,10.069c8.943,20.947,15.526,42.825,19.627,65.229c0.683,3.344-0.692,6.773-3.495,8.718
		c-2.804,1.946-6.497,2.034-9.39,0.225c-13.003-7.428-27.781-11.18-42.752-10.854c-14.984-0.329-29.774,3.426-42.786,10.863
		c-2.893,1.81-6.587,1.721-9.39-0.225s-4.178-5.375-3.495-8.718c4.096-22.408,10.679-44.289,19.627-65.237
		c1.555-3.546,0.5-7.696-2.56-10.069c-21.504-15.872-38.741-44.629-47.957-80.213h-33.28c-2.957-0.109-5.646-1.742-7.106-4.315
		s-1.484-5.719-0.062-8.314l33.707-64.512v-0.085c4.301-69.291,34.509-125.781,76.237-136.107l17.067,25.6l17.067-25.6
		c37.461,9.301,65.536,55.808,74.069,115.285c0.768,5.632,1.451,11.349,1.877,17.237l0.256,3.584v0.171l33.707,64.427
		c1.422,2.595,1.399,5.741-0.062,8.314C382.625,216.055,379.936,217.688,376.979,217.797z"/>
	<g>
		<path style="fill:#41767F;" d="M214.505,98.33c-2.956-0.002-5.701-1.533-7.255-4.048c-1.554-2.515-1.695-5.655-0.374-8.3
			l8.533-17.067c1.363-2.729,4.078-4.523,7.122-4.707c3.044-0.184,5.956,1.27,7.637,3.814c1.682,2.544,1.878,5.793,0.515,8.521
			l-8.533,17.067C220.703,96.507,217.742,98.335,214.505,98.33z"/>
		<path style="fill:#41767F;" d="M350.185,136.986c-16.748,4.133-33.774,7.042-50.944,8.704
			c-11.093,1.024-22.016,1.536-32.597,1.536c-21.275,0.238-42.493-2.228-63.147-7.339c-4.571-1.225-7.284-5.925-6.059-10.496
			c1.225-4.571,5.925-7.284,10.496-6.059c29.37,6.898,59.708,8.688,89.685,5.291c17.112-1.553,34.066-4.522,50.688-8.875
			C349.075,125.381,349.758,131.098,350.185,136.986z"/>
	</g>
	<path style="fill:#9FC9D3;" d="M303.371,227.09c-2.065-0.937-4.417-1.014-6.539-0.213c-2.121,0.801-3.837,2.412-4.768,4.48
		c-5.125,12.622-13.341,23.752-23.893,32.367c-3.306,2.405-6.314,5.195-8.96,8.311c-2.073,2.311-2.728,5.565-1.71,8.497
		s3.548,5.081,6.607,5.61c3.059,0.529,6.164-0.645,8.108-3.065c1.766-2.08,3.771-3.944,5.973-5.555
		c12.941-10.345,23.054-23.795,29.397-39.1c0.948-2.061,1.037-4.415,0.246-6.542S305.435,228.03,303.371,227.09z"/>
	<path style="fill:#67B9CC;" d="M12.725,465.426l53.53-20.292c16.709-6.344,35.165-6.344,51.874,0l24.567,9.31
		c20.615,7.827,43.385,7.827,64,0l24.559-9.31c16.712-6.349,35.171-6.349,51.883,0l24.559,9.31c20.617,7.819,43.383,7.819,64,0
		l24.567-9.31c16.709-6.344,35.165-6.344,51.874,0l53.53,20.292c2.868,1.157,6.137,0.671,8.545-1.269s3.578-5.031,3.059-8.079
		s-2.648-5.577-5.562-6.61l-53.572-20.301c-20.617-7.819-43.383-7.819-64,0l-24.567,9.318c-16.709,6.344-35.165,6.344-51.874,0
		l-24.533-9.318c-20.617-7.821-43.383-7.821-64,0l-24.559,9.318c-16.709,6.344-35.165,6.344-51.874,0l-24.55-9.318
		c-20.617-7.819-43.383-7.819-64,0L6.684,449.468c-2.915,1.033-5.043,3.561-5.562,6.61c-0.52,3.048,0.651,6.139,3.059,8.079
		S9.858,466.582,12.725,465.426z"/>
	<path style="fill:#3B97D3;" d="M504.638,490.863c-11.234-0.458-22.238-3.327-32.265-8.414c-3.413-1.57-6.733-3.413-10.044-5.257
		c-5.487-3.251-11.242-6.026-17.203-8.294c-0.188-0.085-0.393-0.171-0.589-0.239c-1.009-0.373-2.041-0.681-3.089-0.922l-0.529-0.154
		c-0.492-0.171-0.997-0.303-1.51-0.393c-16.694-3.924-34.234-1.889-49.587,5.751l-24.747,11.947c-15.935,7.957-34.685,7.957-50.62,0
		l-24.516-11.947c-20.642-10.329-44.945-10.329-65.587,0l-24.678,11.947c-15.945,7.952-34.7,7.952-50.645,0l-24.61-11.947
		c-15.387-7.475-32.858-9.494-49.545-5.726c-7.985,2.235-15.621,5.566-22.69,9.899c-3.354,1.852-6.707,3.721-10.189,5.308
		c-10.038,5.086-21.048,7.963-32.29,8.439c-4.713,0-8.533,3.82-8.533,8.533s3.821,8.533,8.533,8.533
		c13.69-0.453,27.121-3.859,39.373-9.984c3.883-1.766,7.629-3.84,11.375-5.914c5.731-3.556,11.909-6.333,18.372-8.26
		c12.872-2.875,26.338-1.295,38.195,4.48l24.576,11.947c20.642,10.307,44.929,10.307,65.57,0l24.687-11.947
		c15.936-7.979,34.701-7.979,50.637,0l24.576,11.947c20.637,10.302,44.916,10.302,65.553,0l24.747-11.947
		c11.955-5.92,25.608-7.457,38.579-4.343l2.645,0.742c5.392,1.987,10.586,4.475,15.514,7.433c3.695,2.057,7.398,4.096,11.213,5.854
		c12.232,6.132,25.647,9.541,39.322,9.993c4.713,0,8.533-3.821,8.533-8.533S509.351,490.863,504.638,490.863z"/>
</g>
<g>
</g>
<g>
</g>
<g>
</g>
<g>
</g>
<g>
</g>
<g>
</g>
<g>
</g>
<g>
</g>
<g>
</g>
<g>
</g>
<g>
</g>
<g>
</g>
<g>
</g>
<g>
</g>
<g>
</g>
</svg>
