<?xml version="1.0" encoding="iso-8859-1"?>
<!-- Generator: Adobe Illustrator 19.0.0, SVG Export Plug-In . SVG Version: 6.00 Build 0)  -->
<svg version="1.1" id="Capa_1" xmlns="http://www.w3.org/2000/svg" xmlns:xlink="http://www.w3.org/1999/xlink" x="0px" y="0px"
	 viewBox="0 0 512 512" style="enable-background:new 0 0 512 512;" xml:space="preserve">
<g>
	<path style="fill:#4FBA6F;" d="M240.375,312.761c-0.693,8.43-5.258,16.06-12.359,20.657c-1.148,1.059-2.472,2.119-3.708,3.266
		c-2.913,2.648-5.914,5.208-9.004,7.592c-86.422-59.674-209.743-68.59-215.128-68.943H0v-81.126
		c-0.052-14.285,11.26-26.025,25.538-26.502c14.277-0.477,26.349,10.48,27.251,24.737c7.143-6.669,17.4-8.815,26.617-5.569
		s15.867,11.345,17.256,21.018c6.602-5.316,15.674-6.361,23.312-2.683s12.479,11.42,12.44,19.897c0.005,2.662-0.504,5.3-1.501,7.768
		c2.997-2.191,6.616-3.366,10.328-3.354c9.739,0.029,17.626,7.917,17.655,17.655c-0.04,0.858-0.128,1.712-0.265,2.56
		c5.443-3.31,12.249-3.42,17.797-0.29c5.548,3.131,8.971,9.015,8.951,15.385c-0.04,0.858-0.128,1.712-0.265,2.56
		c6.935-4.221,15.857-3.151,21.598,2.59c5.741,5.741,6.81,14.663,2.59,21.598c0.848-0.136,1.702-0.225,2.56-0.265
		c9.739,0.029,17.626,7.917,17.655,17.655C233.462,308.968,237.289,310.306,240.375,312.761z"/>
	<path style="fill:#9FC9D3;" d="M220.69,105.931c0-19.501-15.809-35.31-35.31-35.31s-35.31,15.809-35.31,35.31h-4.414
		c-12.188,0-22.069,9.881-22.069,22.069s9.881,22.069,22.069,22.069h79.448c12.188,0,22.069-9.881,22.069-22.069
		s-9.881-22.069-22.069-22.069H220.69z"/>
	<g>
		<path style="fill:#67B9CC;" d="M273.655,132.414c0-19.501-15.809-35.31-35.31-35.31s-35.31,15.809-35.31,35.31h-4.414
			c-12.188,0-22.069,9.881-22.069,22.069s9.881,22.069,22.069,22.069h79.448c12.188,0,22.069-9.881,22.069-22.069
			s-9.881-22.069-22.069-22.069H273.655z"/>
		<path style="fill:#67B9CC;" d="M485.517,35.31c0-19.501-15.809-35.31-35.31-35.31c-19.501,0-35.31,15.809-35.31,35.31h-4.414
			c-12.188,0-22.069,9.881-22.069,22.069s9.881,22.069,22.069,22.069h79.448c12.188,0,22.069-9.881,22.069-22.069
			S502.12,35.31,489.931,35.31H485.517z"/>
	</g>
	<g>
		<path style="fill:#46B29D;" d="M20.939,511.929h3.337c-0.353,0-0.697,0-1.059,0C22.449,511.929,21.707,511.912,20.939,511.929z
			 M41.675,511.568h1.121h-0.512H41.675z M61.475,510.738l2.242-0.115l-0.689,0.053C62.517,510.711,61.987,510.711,61.475,510.738z
			 M152.276,495.139c-1.368,0.468-2.763,0.883-4.14,1.28c3.254-1.03,6.491-2.139,9.71-3.328c-1.271,0.468-2.525,0.98-3.805,1.43
			C153.424,494.698,152.806,494.963,152.276,495.139z M260.237,418.737l-0.203,0.185L260.237,418.737z M275.315,404.736
			c20.636-19.004,42.252-36.916,64.759-53.663c-14.468,10.69-28.593,22.007-42.584,34.074
			C290.066,391.451,282.651,398.009,275.315,404.736z M386.896,319.85c-6.991,4.175-13.886,8.439-20.63,12.879
			C373.01,328.289,379.904,324.025,386.896,319.85z M365.577,333.162c-7.115,4.696-14.071,9.596-20.966,14.592
			C351.506,342.758,358.462,337.858,365.577,333.162z M392.828,316.39c13.948-8.086,28.442-15.669,43.67-22.713
			c-7.292,3.372-14.433,6.859-21.425,10.461c-7.574,3.875-14.945,8.033-22.246,12.226V316.39z M487.283,273.134
			c7.292-2.56,14.733-5.032,22.387-7.398c-7.627,2.339-15.069,4.811-22.387,7.371V273.134z M439.526,292.308
			c6.073-2.766,12.267-5.45,18.582-8.051c-6.291,2.589-12.476,5.264-18.556,8.024L439.526,292.308z"/>
		<path style="fill:#46B29D;" d="M511.912,221.926v281.247c0,4.875-3.952,8.828-8.828,8.828H8.828C3.952,512,0,508.048,0,503.173
			V264.828h0.177c5.385,0.353,128.706,9.269,215.128,68.943c3.09-2.383,6.091-4.943,9.004-7.592c1.236-1.148,2.56-2.207,3.708-3.266
			c4.061-3.531,8.121-6.886,12.359-10.152c20.557-16.068,42.679-30.027,66.03-41.666l87.481-34.692
			c35.328-10.538,71.425-18.301,107.961-23.217c2.531-0.358,5.094,0.399,7.024,2.076S511.911,219.369,511.912,221.926z"/>
	</g>
	<path style="fill:#65DDB9;" d="M511.912,221.952v42.964l-0.071,0.097c-114.37,34.948-186.862,90.792-266.699,168.157
		c-18.183,19.127-39.024,35.538-61.881,48.728C130.384,509.802,67.672,511.859,8.828,512C3.952,512,0,508.048,0,503.173V397.241
		c38.047,2.913,142.036-4.502,215.305-63.47c3.09-2.383,6.091-4.943,9.004-7.592c1.236-1.148,2.56-2.207,3.708-3.266
		c4.061-3.531,8.121-6.886,12.359-10.152c20.557-16.068,42.679-30.027,66.03-41.666l87.481-34.692
		c35.335-10.527,71.438-18.284,107.979-23.199c2.53-0.353,5.089,0.408,7.015,2.086C510.808,216.968,511.913,219.397,511.912,221.952
		z"/>
	<g>
		<path style="fill:#14A085;" d="M512,264.828l-0.088,0.088"/>
		<path style="fill:#14A085;" d="M215.393,333.859c-0.049,0-0.088-0.04-0.088-0.088"/>
	</g>
	<circle style="fill:#24AE5F;" cx="326.621" cy="194.207" r="79.448"/>
	<path style="fill:#59474E;" d="M360.448,206.963c-1.299-1.948-3.319-3.3-5.615-3.759c-2.296-0.459-4.681,0.014-6.628,1.314
		l-12.756,8.51v-18.82c0-4.875-3.952-8.828-8.828-8.828s-8.828,3.952-8.828,8.828v18.82l-12.756-8.51
		c-4.056-2.706-9.538-1.611-12.244,2.445s-1.611,9.538,2.445,12.244l22.554,15.033v83.553c0,4.875,3.952,8.828,8.828,8.828
		s8.828-3.952,8.828-8.828V234.24l22.554-15.007c1.956-1.299,3.313-3.324,3.772-5.627
		C362.234,211.303,361.756,208.913,360.448,206.963z"/>
	<path style="fill:#14A085;" d="M215.305,333.771C142.036,392.739,38.047,400.155,0,397.241V264.828h0.177
		C5.562,265.181,128.883,274.097,215.305,333.771z"/>
</g>
<g>
</g>
<g>
</g>
<g>
</g>
<g>
</g>
<g>
</g>
<g>
</g>
<g>
</g>
<g>
</g>
<g>
</g>
<g>
</g>
<g>
</g>
<g>
</g>
<g>
</g>
<g>
</g>
<g>
</g>
</svg>
