<?xml version="1.0" encoding="iso-8859-1"?>
<!-- Generator: Adobe Illustrator 19.0.0, SVG Export Plug-In . SVG Version: 6.00 Build 0)  -->
<svg version="1.1" id="Capa_1" xmlns="http://www.w3.org/2000/svg" xmlns:xlink="http://www.w3.org/1999/xlink" x="0px" y="0px"
	 viewBox="0 0 511.306 511.306" style="enable-background:new 0 0 511.306 511.306;" xml:space="preserve">
<g transform="translate(-1)">
	<path style="fill:#4FBA6F;" d="M315.726,476.594c-24.038,0-58.75-16.289-58.75-16.289h-0.694c0.087,0-34.712,16.289-58.75,16.289
		c-93.809,0-212.35-164.569-110.384-255.08C184.862,134.682,251.422,9.954,256.629,0c5.207,9.954,71.767,134.699,169.567,221.514
		C528.076,312.025,409.622,476.594,315.726,476.594z"/>
	<g>
		<path style="fill:#4C8056;" d="M256.282,138.153c-4.793,0-8.678,3.885-8.678,8.678v355.797c0,4.793,3.885,8.678,8.678,8.678
			c4.793,0,8.678-3.885,8.678-8.678V146.831C264.96,142.038,261.075,138.153,256.282,138.153z"/>
		<path style="fill:#4C8056;" d="M256.282,77.407c-4.793,0-8.678,3.885-8.678,8.678v26.034c0,4.793,3.885,8.678,8.678,8.678
			c4.793,0,8.678-3.885,8.678-8.678V86.085C264.96,81.293,261.075,77.407,256.282,77.407z"/>
		<path style="fill:#4C8056;" d="M217.587,399.082L96.095,320.981c-4.029-2.557-9.366-1.381-11.948,2.632s-1.439,9.358,2.559,11.964
			l121.492,78.102c4.029,2.557,9.367,1.381,11.948-2.632C222.727,407.033,221.584,401.689,217.587,399.082z"/>
		<path style="fill:#4C8056;" d="M217.552,329.633l-78.102-49.699c-2.616-1.709-5.949-1.88-8.725-0.447s-4.569,4.248-4.692,7.37
			c-0.123,3.122,1.442,6.07,4.097,7.717l78.102,49.707c4.045,2.574,9.411,1.381,11.984-2.664
			C222.79,337.572,221.597,332.206,217.552,329.633z"/>
		<path style="fill:#4C8056;" d="M217.552,260.209l-54.55-34.712c-4.045-2.574-9.411-1.381-11.984,2.664s-1.381,9.411,2.664,11.984
			l54.55,34.712c4.045,2.574,9.411,1.381,11.984-2.664C222.79,268.148,221.597,262.783,217.552,260.209z"/>
		<path style="fill:#4C8056;" d="M217.552,190.785l-26.034-16.566c-2.617-1.665-5.923-1.807-8.673-0.374
			c-2.75,1.434-4.527,4.226-4.66,7.324c-0.133,3.099,1.396,6.033,4.013,7.698l26.034,16.566c4.045,2.574,9.411,1.381,11.984-2.664
			C222.79,198.724,221.597,193.359,217.552,190.785z"/>
		<path style="fill:#4C8056;" d="M428.462,323.593c-2.593-4.031-7.962-5.196-11.993-2.603l-121.492,78.102
			c-2.628,1.668-4.162,4.616-4.019,7.726c0.143,3.11,1.941,5.905,4.712,7.324s6.089,1.246,8.697-0.454l121.492-78.102
			C429.889,332.993,431.054,327.623,428.462,323.593z"/>
		<path style="fill:#4C8056;" d="M299.672,345.635c1.648,0.003,3.262-0.467,4.651-1.354l78.102-49.707
			c2.655-1.647,4.22-4.594,4.097-7.717c-0.123-3.122-1.915-5.937-4.692-7.37s-6.11-1.262-8.725,0.447l-78.102,49.699
			c-3.259,2.071-4.758,6.047-3.676,9.755C292.408,343.095,295.81,345.641,299.672,345.635z"/>
		<path style="fill:#4C8056;" d="M299.672,276.211c1.648,0.003,3.262-0.467,4.651-1.354l54.55-34.712
			c4.045-2.574,5.238-7.939,2.664-11.984s-7.939-5.238-11.984-2.664l-54.55,34.712c-3.259,2.071-4.758,6.047-3.676,9.755
			C292.408,273.671,295.81,276.217,299.672,276.211z"/>
		<path style="fill:#4C8056;" d="M299.672,206.787c1.648,0.003,3.262-0.467,4.651-1.354l26.034-16.566
			c2.617-1.665,4.146-4.599,4.013-7.698c-0.133-3.099-1.91-5.891-4.66-7.324c-2.75-1.434-6.056-1.291-8.673,0.374l-26.034,16.566
			c-3.259,2.071-4.758,6.047-3.676,9.755C292.408,204.247,295.81,206.794,299.672,206.787z"/>
	</g>
</g>
<g>
</g>
<g>
</g>
<g>
</g>
<g>
</g>
<g>
</g>
<g>
</g>
<g>
</g>
<g>
</g>
<g>
</g>
<g>
</g>
<g>
</g>
<g>
</g>
<g>
</g>
<g>
</g>
<g>
</g>
</svg>
