<?xml version="1.0" encoding="iso-8859-1"?>
<!-- Generator: Adobe Illustrator 19.0.0, SVG Export Plug-In . SVG Version: 6.00 Build 0)  -->
<svg version="1.1" id="Capa_1" xmlns="http://www.w3.org/2000/svg" xmlns:xlink="http://www.w3.org/1999/xlink" x="0px" y="0px"
	 viewBox="0 0 512.006 512.006" style="enable-background:new 0 0 512.006 512.006;" xml:space="preserve">
<g transform="translate(0 -1)">
	<path style="fill:#24AE5F;" d="M332.429,238.174h0.087c11.108-1.128,22.997-1.996,35.84-2.69
		C478.045,229.41,502.083,116.683,506.682,50.21c1.173-15.913,1.289-31.887,0.347-47.816c0,0-138.674-8.678-207.924,17.269
		c-33.618,11.693-63.006,33.108-84.437,61.527L332.429,238.174z"/>
	<path style="fill:#4FBA6F;" d="M329.391,321.136c-0.966,6.163-2.241,12.275-3.818,18.311c-3.256-3.509-7.104-6.417-11.368-8.591
		c-18.484-10.847-64.477-28.724-170.609-34.625C-12.434,287.639,4.922,63.14,4.922,63.14s138.674-8.678,207.924,17.269
		c35.68,12.28,66.507,35.629,87.995,66.647c3.328,4.852,6.37,9.894,9.112,15.1C341.454,220.732,335.032,289.114,329.391,321.136z"/>
	<path style="fill:#71C285;" d="M462.511,58.28c-2.083,2.777-50.072,65.605-152.559,103.875c-2.742-5.206-5.784-10.247-9.112-15.1
		c100.057-36.447,147.265-98.495,147.786-99.189c1.86-2.48,4.902-3.78,7.98-3.409c3.078,0.371,5.725,2.356,6.942,5.207
		C464.767,52.516,464.372,55.8,462.511,58.28z"/>
	<path style="fill:#527F72;" d="M223.815,218.337c-63.562-18.723-119.618-56.978-160.221-109.342
		c-2.673-3.956-8.041-5.01-12.011-2.357s-5.052,8.014-2.42,11.999c2.196,3.289,55.105,81.07,169.55,116.285
		c45.19,13.569,80.732,48.627,94.92,93.627c2.196,6.791,3.289,13.89,3.237,21.027l-0.148,154.754c0,4.793,3.885,8.678,8.678,8.678
		s8.678-3.885,8.678-8.678l0.147-154.746c0.055-8.995-1.337-17.94-4.122-26.494C313.841,272.949,274.186,233.867,223.815,218.337z"
		/>
</g>
<g>
</g>
<g>
</g>
<g>
</g>
<g>
</g>
<g>
</g>
<g>
</g>
<g>
</g>
<g>
</g>
<g>
</g>
<g>
</g>
<g>
</g>
<g>
</g>
<g>
</g>
<g>
</g>
<g>
</g>
</svg>
