<?xml version="1.0" encoding="iso-8859-1"?>
<!-- Generator: Adobe Illustrator 19.0.0, SVG Export Plug-In . SVG Version: 6.00 Build 0)  -->
<svg version="1.1" id="Capa_1" xmlns="http://www.w3.org/2000/svg" xmlns:xlink="http://www.w3.org/1999/xlink" x="0px" y="0px"
	 viewBox="0 0 512.005 512.005" style="enable-background:new 0 0 512.005 512.005;" xml:space="preserve">
<g transform="translate(-1 -1)">
	<path style="fill:#4FBA6F;" d="M280.307,410.428c0.857-1.568,1.538-3.226,2.03-4.943c6.027,10.156,18.077,15.06,29.483,11.998
		c11.406-3.062,19.38-13.342,19.51-25.151c8.443,8.258,21.349,9.889,31.582,3.992c10.232-5.897,15.291-17.882,12.38-29.327
		c10.286,5.79,23.169,4.023,31.516-4.324c8.347-8.347,10.114-21.23,4.324-31.516c11.445,2.912,23.43-2.147,29.327-12.38
		c5.897-10.232,4.266-23.139-3.992-31.582c11.809-0.13,22.089-8.104,25.151-19.51c3.062-11.406-1.842-23.456-11.998-29.483
		c11.377-3.165,19.249-13.526,19.249-25.335s-7.872-22.17-19.249-25.335c10.156-6.027,15.06-18.077,11.998-29.483
		c-3.062-11.406-13.342-19.38-25.151-19.51c8.258-8.443,9.889-21.349,3.992-31.582c-5.897-10.232-17.882-15.291-29.327-12.38
		c5.79-10.286,4.023-23.17-4.324-31.516c-8.347-8.347-21.23-10.114-31.516-4.324c2.912-11.445-2.147-23.43-12.38-29.327
		c-10.232-5.897-23.139-4.266-31.582,3.992c-0.13-11.809-8.104-22.089-19.51-25.151c-11.406-3.062-23.456,1.841-29.483,11.998
		C279.172,8.872,268.811,1,257.002,1s-22.17,7.872-25.335,19.249c-6.027-10.156-18.077-15.06-29.483-11.998
		c-11.406,3.062-19.38,13.342-19.51,25.151c-8.443-8.258-21.349-9.889-31.582-3.992c-10.232,5.897-15.291,17.882-12.38,29.327
		c-10.286-5.79-23.17-4.023-31.516,4.324s-10.114,21.23-4.324,31.516c-11.445-2.912-23.43,2.147-29.327,12.38
		c-5.897,10.232-4.266,23.139,3.992,31.582c-11.809,0.13-22.089,8.104-25.151,19.51c-3.062,11.406,1.841,23.456,11.998,29.483
		c-11.377,3.165-19.249,13.526-19.249,25.335s7.872,22.17,19.249,25.335c-10.156,6.027-15.06,18.077-11.998,29.483
		c3.062,11.406,13.342,19.38,25.151,19.51c-8.258,8.443-9.889,21.349-3.992,31.582c5.897,10.232,17.882,15.291,29.327,12.38
		c-5.79,10.286-4.023,23.169,4.324,31.516c8.347,8.347,21.23,10.114,31.516,4.324c-2.912,11.445,2.147,23.43,12.38,29.327
		c10.232,5.897,23.139,4.266,31.582-3.992c0.13,11.809,8.104,22.089,19.51,25.151c11.406,3.062,23.456-1.841,29.483-11.998
		c0.493,1.718,1.174,3.375,2.03,4.943H280.307z"/>
	<g>
		<path style="fill:#7F5B53;" d="M369.183,206.635c-3.447-3.446-9.035-3.446-12.482,0l-99.699,99.425l-99.752-99.443
			c-2.22-2.291-5.503-3.207-8.588-2.395c-3.085,0.812-5.492,3.226-6.295,6.313s0.121,6.368,2.419,8.581l101.703,101.385
			c0.65,0.594,1.388,1.083,2.189,1.448c1.103,2.75,3.513,4.763,6.415,5.36c2.902,0.597,5.911-0.302,8.009-2.394l106.063-105.799
			C372.617,215.674,372.625,210.087,369.183,206.635z"/>
		<path style="fill:#7F5B53;" d="M241.934,236.763c0.997,0.958,2.207,1.666,3.531,2.066c-2.467,3.443-2.094,8.163,0.883,11.176
			c3.447,3.446,9.035,3.446,12.482,0l91.895-91.869c3.454-3.454,3.454-9.054,0-12.509c-3.454-3.454-9.055-3.454-12.509,0
			l-81.832,81.832c-0.43-1.19-1.11-2.274-1.995-3.178l-79.448-79.448c-3.464-3.345-8.97-3.298-12.375,0.108
			c-3.405,3.405-3.453,8.911-0.108,12.375L241.934,236.763z"/>
		<path style="fill:#7F5B53;" d="M266.104,221.694h-18.202c-4.77-0.002-8.68,3.786-8.828,8.554l-8.554,273.929h52.966
			l-8.563-273.929C274.775,225.484,270.871,221.697,266.104,221.694z"/>
	</g>
	<g>
		<path style="fill:#805333;" d="M309.968,495.35H133.416c-4.875,0-8.828,3.952-8.828,8.828s3.952,8.828,8.828,8.828h176.552
			c4.875,0,8.828-3.952,8.828-8.828S314.843,495.35,309.968,495.35z"/>
		<path style="fill:#805333;" d="M380.589,495.35h-35.31c-4.875,0-8.828,3.952-8.828,8.828s3.952,8.828,8.828,8.828h35.31
			c4.875,0,8.828-3.952,8.828-8.828S385.464,495.35,380.589,495.35z"/>
	</g>
	<g>
		<circle style="fill:#7ED09E;" cx="327.623" cy="89.281" r="26.483"/>
		<circle style="fill:#7ED09E;" cx="257.002" cy="53.97" r="17.655"/>
	</g>
</g>
<g>
</g>
<g>
</g>
<g>
</g>
<g>
</g>
<g>
</g>
<g>
</g>
<g>
</g>
<g>
</g>
<g>
</g>
<g>
</g>
<g>
</g>
<g>
</g>
<g>
</g>
<g>
</g>
<g>
</g>
</svg>
